ISO-10303-21;
HEADER;
/* Generated by software containing ST-Developer
 * from STEP Tools, Inc. (www.steptools.com) 
 */

FILE_DESCRIPTION(
/* description */ (''),
/* implementation_level */ '2;1');

FILE_NAME(
/* name */ 'Starlink mini wall mount.step',
/* time_stamp */ '2026-05-04T13:34:21+01:00',
/* author */ (''),
/* organization */ (''),
/* preprocessor_version */ 'ST-DEVELOPER v20.1',
/* originating_system */ 'Autodesk Translation Framework v15.8.0.0',
/* authorisation */ '');

FILE_SCHEMA (('AUTOMOTIVE_DESIGN { 1 0 10303 214 3 1 1 }'));
ENDSEC;

DATA;
#10=MECHANICAL_DESIGN_GEOMETRIC_PRESENTATION_REPRESENTATION('',(#13,#14),
#1065);
#11=SHAPE_REPRESENTATION_RELATIONSHIP('SRR','None',#1072,#12);
#12=ADVANCED_BREP_SHAPE_REPRESENTATION('',(#15,#16),#1064);
#13=STYLED_ITEM('',(#1081),#15);
#14=STYLED_ITEM('',(#1081),#16);
#15=MANIFOLD_SOLID_BREP('Body1',#602);
#16=MANIFOLD_SOLID_BREP('Body3',#603);
#17=B_SPLINE_CURVE_WITH_KNOTS('',3,(#956,#957,#958,#959,#960,#961,#962,
#963,#964,#965),.UNSPECIFIED.,.F.,.F.,(4,2,2,2,4),(0.,0.107464996003356,
0.214929992006713,0.322394257819083,0.429858523631453),.UNSPECIFIED.);
#18=B_SPLINE_CURVE_WITH_KNOTS('',3,(#966,#967,#968,#969,#970,#971,#972,
#973,#974,#975,#976,#977,#978,#979,#980,#981,#982,#983,#984,#985,#986,#987,
#988,#989,#990,#991),.UNSPECIFIED.,.F.,.F.,(4,2,2,2,2,2,2,2,2,2,2,2,4),
(0.429858523631453,0.537322789443823,0.644787055256193,0.75225205125955,
0.859717047262906,0.967182043266263,1.07464703926962,1.18211130508199,1.28957557089436,
1.39703983670673,1.5045041025191,1.61196909852246,1.71943409452581),
 .UNSPECIFIED.);
#19=B_SPLINE_CURVE_WITH_KNOTS('',3,(#994,#995,#996,#997,#998,#999,#1000,
#1001,#1002,#1003),.UNSPECIFIED.,.F.,.F.,(4,2,2,2,4),(0.,0.107464996003356,
0.214929992006713,0.322394257819083,0.429858523631453),.UNSPECIFIED.);
#20=B_SPLINE_CURVE_WITH_KNOTS('',3,(#1004,#1005,#1006,#1007,#1008,#1009,
#1010,#1011,#1012,#1013,#1014,#1015,#1016,#1017,#1018,#1019,#1020,#1021,
#1022,#1023,#1024,#1025,#1026,#1027,#1028,#1029),.UNSPECIFIED.,.F.,.F.,
(4,2,2,2,2,2,2,2,2,2,2,2,4),(0.429858523631453,0.537322789443823,0.644787055256193,
0.75225205125955,0.859717047262906,0.967182043266263,1.07464703926962,1.18211130508199,
1.28957557089436,1.39703983670673,1.5045041025191,1.61196909852246,1.71943409452581),
 .UNSPECIFIED.);
#21=ELLIPSE('',#653,24.9230495726346,24.);
#22=CONICAL_SURFACE('',#645,24.5,0.785398163397446);
#23=FACE_BOUND('',#101,.T.);
#24=FACE_BOUND('',#102,.T.);
#25=FACE_BOUND('',#103,.T.);
#26=FACE_BOUND('',#104,.T.);
#27=FACE_BOUND('',#105,.T.);
#28=FACE_BOUND('',#106,.T.);
#29=FACE_BOUND('',#107,.T.);
#30=FACE_BOUND('',#108,.T.);
#31=FACE_BOUND('',#114,.T.);
#32=FACE_BOUND('',#115,.T.);
#33=FACE_BOUND('',#116,.T.);
#34=FACE_BOUND('',#117,.T.);
#35=FACE_BOUND('',#118,.T.);
#36=FACE_BOUND('',#119,.T.);
#37=FACE_BOUND('',#120,.T.);
#38=FACE_BOUND('',#129,.T.);
#39=FACE_BOUND('',#130,.T.);
#40=PLANE('',#638);
#41=PLANE('',#639);
#42=PLANE('',#640);
#43=PLANE('',#641);
#44=PLANE('',#642);
#45=PLANE('',#643);
#46=PLANE('',#644);
#47=PLANE('',#649);
#48=PLANE('',#650);
#49=PLANE('',#651);
#50=PLANE('',#652);
#51=PLANE('',#654);
#52=PLANE('',#657);
#53=PLANE('',#658);
#54=PLANE('',#661);
#55=PLANE('',#663);
#56=PLANE('',#664);
#57=PLANE('',#665);
#58=PLANE('',#666);
#59=PLANE('',#667);
#60=PLANE('',#668);
#61=FACE_OUTER_BOUND('',#93,.T.);
#62=FACE_OUTER_BOUND('',#94,.T.);
#63=FACE_OUTER_BOUND('',#95,.T.);
#64=FACE_OUTER_BOUND('',#96,.T.);
#65=FACE_OUTER_BOUND('',#97,.T.);
#66=FACE_OUTER_BOUND('',#98,.T.);
#67=FACE_OUTER_BOUND('',#99,.T.);
#68=FACE_OUTER_BOUND('',#100,.T.);
#69=FACE_OUTER_BOUND('',#109,.T.);
#70=FACE_OUTER_BOUND('',#110,.T.);
#71=FACE_OUTER_BOUND('',#111,.T.);
#72=FACE_OUTER_BOUND('',#112,.T.);
#73=FACE_OUTER_BOUND('',#113,.T.);
#74=FACE_OUTER_BOUND('',#121,.T.);
#75=FACE_OUTER_BOUND('',#122,.T.);
#76=FACE_OUTER_BOUND('',#123,.T.);
#77=FACE_OUTER_BOUND('',#124,.T.);
#78=FACE_OUTER_BOUND('',#125,.T.);
#79=FACE_OUTER_BOUND('',#126,.T.);
#80=FACE_OUTER_BOUND('',#127,.T.);
#81=FACE_OUTER_BOUND('',#128,.T.);
#82=FACE_OUTER_BOUND('',#131,.T.);
#83=FACE_OUTER_BOUND('',#132,.T.);
#84=FACE_OUTER_BOUND('',#133,.T.);
#85=FACE_OUTER_BOUND('',#134,.T.);
#86=FACE_OUTER_BOUND('',#135,.T.);
#87=FACE_OUTER_BOUND('',#136,.T.);
#88=FACE_OUTER_BOUND('',#137,.T.);
#89=FACE_OUTER_BOUND('',#138,.T.);
#90=FACE_OUTER_BOUND('',#139,.T.);
#91=FACE_OUTER_BOUND('',#140,.T.);
#92=FACE_OUTER_BOUND('',#141,.T.);
#93=EDGE_LOOP('',(#402,#403,#404,#405));
#94=EDGE_LOOP('',(#406,#407,#408,#409));
#95=EDGE_LOOP('',(#410,#411,#412,#413));
#96=EDGE_LOOP('',(#414,#415,#416,#417));
#97=EDGE_LOOP('',(#418,#419,#420,#421));
#98=EDGE_LOOP('',(#422,#423,#424,#425));
#99=EDGE_LOOP('',(#426,#427,#428,#429));
#100=EDGE_LOOP('',(#430,#431,#432,#433));
#101=EDGE_LOOP('',(#434,#435,#436,#437));
#102=EDGE_LOOP('',(#438));
#103=EDGE_LOOP('',(#439));
#104=EDGE_LOOP('',(#440));
#105=EDGE_LOOP('',(#441));
#106=EDGE_LOOP('',(#442));
#107=EDGE_LOOP('',(#443));
#108=EDGE_LOOP('',(#444));
#109=EDGE_LOOP('',(#445,#446,#447,#448));
#110=EDGE_LOOP('',(#449,#450,#451,#452));
#111=EDGE_LOOP('',(#453,#454,#455,#456));
#112=EDGE_LOOP('',(#457,#458,#459,#460));
#113=EDGE_LOOP('',(#461,#462,#463,#464));
#114=EDGE_LOOP('',(#465));
#115=EDGE_LOOP('',(#466));
#116=EDGE_LOOP('',(#467));
#117=EDGE_LOOP('',(#468));
#118=EDGE_LOOP('',(#469));
#119=EDGE_LOOP('',(#470));
#120=EDGE_LOOP('',(#471));
#121=EDGE_LOOP('',(#472,#473,#474));
#122=EDGE_LOOP('',(#475,#476,#477,#478,#479));
#123=EDGE_LOOP('',(#480,#481,#482));
#124=EDGE_LOOP('',(#483,#484,#485,#486,#487,#488,#489));
#125=EDGE_LOOP('',(#490,#491,#492,#493));
#126=EDGE_LOOP('',(#494,#495,#496,#497,#498,#499));
#127=EDGE_LOOP('',(#500,#501,#502,#503));
#128=EDGE_LOOP('',(#504,#505,#506,#507,#508,#509,#510,#511));
#129=EDGE_LOOP('',(#512,#513));
#130=EDGE_LOOP('',(#514,#515));
#131=EDGE_LOOP('',(#516,#517,#518,#519));
#132=EDGE_LOOP('',(#520,#521,#522,#523));
#133=EDGE_LOOP('',(#524,#525,#526,#527));
#134=EDGE_LOOP('',(#528,#529,#530,#531,#532,#533,#534));
#135=EDGE_LOOP('',(#535,#536,#537,#538,#539,#540));
#136=EDGE_LOOP('',(#541));
#137=EDGE_LOOP('',(#542,#543,#544,#545));
#138=EDGE_LOOP('',(#546,#547,#548,#549));
#139=EDGE_LOOP('',(#550,#551,#552,#553));
#140=EDGE_LOOP('',(#554,#555,#556));
#141=EDGE_LOOP('',(#557,#558,#559));
#142=LINE('',#835,#197);
#143=LINE('',#841,#198);
#144=LINE('',#847,#199);
#145=LINE('',#853,#200);
#146=LINE('',#859,#201);
#147=LINE('',#865,#202);
#148=LINE('',#871,#203);
#149=LINE('',#876,#204);
#150=LINE('',#878,#205);
#151=LINE('',#880,#206);
#152=LINE('',#881,#207);
#153=LINE('',#884,#208);
#154=LINE('',#886,#209);
#155=LINE('',#888,#210);
#156=LINE('',#889,#211);
#157=LINE('',#892,#212);
#158=LINE('',#894,#213);
#159=LINE('',#895,#214);
#160=LINE('',#898,#215);
#161=LINE('',#899,#216);
#162=LINE('',#902,#217);
#163=LINE('',#903,#218);
#164=LINE('',#905,#219);
#165=LINE('',#910,#220);
#166=LINE('',#912,#221);
#167=LINE('',#913,#222);
#168=LINE('',#917,#223);
#169=LINE('',#924,#224);
#170=LINE('',#925,#225);
#171=LINE('',#928,#226);
#172=LINE('',#930,#227);
#173=LINE('',#931,#228);
#174=LINE('',#933,#229);
#175=LINE('',#934,#230);
#176=LINE('',#937,#231);
#177=LINE('',#939,#232);
#178=LINE('',#940,#233);
#179=LINE('',#943,#234);
#180=LINE('',#944,#235);
#181=LINE('',#946,#236);
#182=LINE('',#949,#237);
#183=LINE('',#953,#238);
#184=LINE('',#1031,#239);
#185=LINE('',#1035,#240);
#186=LINE('',#1037,#241);
#187=LINE('',#1040,#242);
#188=LINE('',#1045,#243);
#189=LINE('',#1047,#244);
#190=LINE('',#1049,#245);
#191=LINE('',#1050,#246);
#192=LINE('',#1053,#247);
#193=LINE('',#1055,#248);
#194=LINE('',#1056,#249);
#195=LINE('',#1058,#250);
#196=LINE('',#1059,#251);
#197=VECTOR('',#675,2.);
#198=VECTOR('',#682,2.);
#199=VECTOR('',#689,2.);
#200=VECTOR('',#696,2.);
#201=VECTOR('',#703,2.);
#202=VECTOR('',#710,2.);
#203=VECTOR('',#717,2.);
#204=VECTOR('',#722,10.);
#205=VECTOR('',#723,10.);
#206=VECTOR('',#724,10.);
#207=VECTOR('',#725,10.);
#208=VECTOR('',#726,10.);
#209=VECTOR('',#727,10.);
#210=VECTOR('',#728,10.);
#211=VECTOR('',#729,10.);
#212=VECTOR('',#732,10.);
#213=VECTOR('',#733,10.);
#214=VECTOR('',#734,10.);
#215=VECTOR('',#737,10.);
#216=VECTOR('',#738,10.);
#217=VECTOR('',#741,10.);
#218=VECTOR('',#742,10.);
#219=VECTOR('',#745,10.);
#220=VECTOR('',#750,10.);
#221=VECTOR('',#751,10.);
#222=VECTOR('',#752,10.);
#223=VECTOR('',#755,10.);
#224=VECTOR('',#764,10.);
#225=VECTOR('',#765,10.);
#226=VECTOR('',#768,10.);
#227=VECTOR('',#769,10.);
#228=VECTOR('',#770,10.);
#229=VECTOR('',#771,10.);
#230=VECTOR('',#772,10.);
#231=VECTOR('',#775,10.);
#232=VECTOR('',#776,10.);
#233=VECTOR('',#777,10.);
#234=VECTOR('',#780,10.);
#235=VECTOR('',#781,10.);
#236=VECTOR('',#782,10.);
#237=VECTOR('',#787,10.);
#238=VECTOR('',#792,24.);
#239=VECTOR('',#795,10.);
#240=VECTOR('',#800,10.);
#241=VECTOR('',#803,10.);
#242=VECTOR('',#808,2.85);
#243=VECTOR('',#813,10.);
#244=VECTOR('',#814,10.);
#245=VECTOR('',#815,10.);
#246=VECTOR('',#816,10.);
#247=VECTOR('',#819,10.);
#248=VECTOR('',#820,10.);
#249=VECTOR('',#821,10.);
#250=VECTOR('',#824,10.);
#251=VECTOR('',#825,10.);
#252=CIRCLE('',#618,2.);
#253=CIRCLE('',#619,1.99999999999998);
#254=CIRCLE('',#621,2.);
#255=CIRCLE('',#622,1.99999999999998);
#256=CIRCLE('',#624,2.);
#257=CIRCLE('',#625,1.99999999999998);
#258=CIRCLE('',#627,2.);
#259=CIRCLE('',#628,1.99999999999998);
#260=CIRCLE('',#630,2.);
#261=CIRCLE('',#631,1.99999999999998);
#262=CIRCLE('',#633,2.);
#263=CIRCLE('',#634,1.99999999999998);
#264=CIRCLE('',#636,2.);
#265=CIRCLE('',#637,1.99999999999998);
#266=CIRCLE('',#646,25.);
#267=CIRCLE('',#647,24.);
#268=CIRCLE('',#648,24.);
#269=CIRCLE('',#656,24.);
#270=CIRCLE('',#659,25.);
#271=VERTEX_POINT('',#832);
#272=VERTEX_POINT('',#834);
#273=VERTEX_POINT('',#838);
#274=VERTEX_POINT('',#840);
#275=VERTEX_POINT('',#844);
#276=VERTEX_POINT('',#846);
#277=VERTEX_POINT('',#850);
#278=VERTEX_POINT('',#852);
#279=VERTEX_POINT('',#856);
#280=VERTEX_POINT('',#858);
#281=VERTEX_POINT('',#862);
#282=VERTEX_POINT('',#864);
#283=VERTEX_POINT('',#868);
#284=VERTEX_POINT('',#870);
#285=VERTEX_POINT('',#874);
#286=VERTEX_POINT('',#875);
#287=VERTEX_POINT('',#877);
#288=VERTEX_POINT('',#879);
#289=VERTEX_POINT('',#882);
#290=VERTEX_POINT('',#883);
#291=VERTEX_POINT('',#885);
#292=VERTEX_POINT('',#887);
#293=VERTEX_POINT('',#891);
#294=VERTEX_POINT('',#893);
#295=VERTEX_POINT('',#897);
#296=VERTEX_POINT('',#901);
#297=VERTEX_POINT('',#908);
#298=VERTEX_POINT('',#909);
#299=VERTEX_POINT('',#911);
#300=VERTEX_POINT('',#915);
#301=VERTEX_POINT('',#916);
#302=VERTEX_POINT('',#919);
#303=VERTEX_POINT('',#923);
#304=VERTEX_POINT('',#927);
#305=VERTEX_POINT('',#929);
#306=VERTEX_POINT('',#932);
#307=VERTEX_POINT('',#936);
#308=VERTEX_POINT('',#938);
#309=VERTEX_POINT('',#942);
#310=VERTEX_POINT('',#945);
#311=VERTEX_POINT('',#951);
#312=VERTEX_POINT('',#954);
#313=VERTEX_POINT('',#955);
#314=VERTEX_POINT('',#992);
#315=VERTEX_POINT('',#993);
#316=VERTEX_POINT('',#1033);
#317=VERTEX_POINT('',#1043);
#318=VERTEX_POINT('',#1044);
#319=VERTEX_POINT('',#1046);
#320=VERTEX_POINT('',#1048);
#321=VERTEX_POINT('',#1052);
#322=VERTEX_POINT('',#1054);
#323=EDGE_CURVE('',#271,#271,#252,.T.);
#324=EDGE_CURVE('',#271,#272,#142,.T.);
#325=EDGE_CURVE('',#272,#272,#253,.T.);
#326=EDGE_CURVE('',#273,#273,#254,.T.);
#327=EDGE_CURVE('',#273,#274,#143,.T.);
#328=EDGE_CURVE('',#274,#274,#255,.T.);
#329=EDGE_CURVE('',#275,#275,#256,.T.);
#330=EDGE_CURVE('',#275,#276,#144,.T.);
#331=EDGE_CURVE('',#276,#276,#257,.T.);
#332=EDGE_CURVE('',#277,#277,#258,.T.);
#333=EDGE_CURVE('',#277,#278,#145,.T.);
#334=EDGE_CURVE('',#278,#278,#259,.T.);
#335=EDGE_CURVE('',#279,#279,#260,.T.);
#336=EDGE_CURVE('',#279,#280,#146,.T.);
#337=EDGE_CURVE('',#280,#280,#261,.T.);
#338=EDGE_CURVE('',#281,#281,#262,.T.);
#339=EDGE_CURVE('',#281,#282,#147,.T.);
#340=EDGE_CURVE('',#282,#282,#263,.T.);
#341=EDGE_CURVE('',#283,#283,#264,.T.);
#342=EDGE_CURVE('',#283,#284,#148,.T.);
#343=EDGE_CURVE('',#284,#284,#265,.T.);
#344=EDGE_CURVE('',#285,#286,#149,.T.);
#345=EDGE_CURVE('',#286,#287,#150,.T.);
#346=EDGE_CURVE('',#287,#288,#151,.T.);
#347=EDGE_CURVE('',#288,#285,#152,.T.);
#348=EDGE_CURVE('',#289,#290,#153,.T.);
#349=EDGE_CURVE('',#289,#291,#154,.T.);
#350=EDGE_CURVE('',#291,#292,#155,.T.);
#351=EDGE_CURVE('',#290,#292,#156,.T.);
#352=EDGE_CURVE('',#286,#293,#157,.T.);
#353=EDGE_CURVE('',#294,#293,#158,.T.);
#354=EDGE_CURVE('',#287,#294,#159,.T.);
#355=EDGE_CURVE('',#295,#294,#160,.T.);
#356=EDGE_CURVE('',#288,#295,#161,.T.);
#357=EDGE_CURVE('',#296,#295,#162,.T.);
#358=EDGE_CURVE('',#285,#296,#163,.T.);
#359=EDGE_CURVE('',#293,#296,#164,.T.);
#360=EDGE_CURVE('',#297,#298,#165,.F.);
#361=EDGE_CURVE('',#298,#299,#166,.T.);
#362=EDGE_CURVE('',#299,#297,#167,.T.);
#363=EDGE_CURVE('',#300,#301,#168,.T.);
#364=EDGE_CURVE('',#301,#299,#266,.T.);
#365=EDGE_CURVE('',#302,#298,#267,.T.);
#366=EDGE_CURVE('',#300,#302,#268,.T.);
#367=EDGE_CURVE('',#303,#300,#169,.T.);
#368=EDGE_CURVE('',#303,#301,#170,.T.);
#369=EDGE_CURVE('',#304,#303,#171,.T.);
#370=EDGE_CURVE('',#304,#305,#172,.T.);
#371=EDGE_CURVE('',#305,#289,#173,.T.);
#372=EDGE_CURVE('',#306,#290,#174,.T.);
#373=EDGE_CURVE('',#301,#306,#175,.T.);
#374=EDGE_CURVE('',#297,#307,#176,.T.);
#375=EDGE_CURVE('',#307,#308,#177,.T.);
#376=EDGE_CURVE('',#298,#308,#178,.T.);
#377=EDGE_CURVE('',#309,#307,#179,.T.);
#378=EDGE_CURVE('',#305,#309,#180,.T.);
#379=EDGE_CURVE('',#310,#304,#181,.T.);
#380=EDGE_CURVE('',#308,#310,#21,.T.);
#381=EDGE_CURVE('',#310,#300,#182,.T.);
#382=EDGE_CURVE('',#311,#311,#269,.T.);
#383=EDGE_CURVE('',#311,#302,#183,.T.);
#384=EDGE_CURVE('',#312,#313,#17,.T.);
#385=EDGE_CURVE('',#313,#312,#18,.T.);
#386=EDGE_CURVE('',#314,#315,#19,.T.);
#387=EDGE_CURVE('',#315,#314,#20,.T.);
#388=EDGE_CURVE('',#309,#291,#184,.T.);
#389=EDGE_CURVE('',#306,#316,#270,.T.);
#390=EDGE_CURVE('',#292,#316,#185,.T.);
#391=EDGE_CURVE('',#316,#299,#186,.T.);
#392=EDGE_CURVE('',#315,#313,#187,.T.);
#393=EDGE_CURVE('',#317,#318,#188,.T.);
#394=EDGE_CURVE('',#318,#319,#189,.T.);
#395=EDGE_CURVE('',#320,#319,#190,.T.);
#396=EDGE_CURVE('',#317,#320,#191,.T.);
#397=EDGE_CURVE('',#321,#317,#192,.T.);
#398=EDGE_CURVE('',#322,#320,#193,.T.);
#399=EDGE_CURVE('',#321,#322,#194,.T.);
#400=EDGE_CURVE('',#318,#321,#195,.T.);
#401=EDGE_CURVE('',#319,#322,#196,.T.);
#402=ORIENTED_EDGE('',*,*,#323,.F.);
#403=ORIENTED_EDGE('',*,*,#324,.T.);
#404=ORIENTED_EDGE('',*,*,#325,.F.);
#405=ORIENTED_EDGE('',*,*,#324,.F.);
#406=ORIENTED_EDGE('',*,*,#326,.F.);
#407=ORIENTED_EDGE('',*,*,#327,.T.);
#408=ORIENTED_EDGE('',*,*,#328,.F.);
#409=ORIENTED_EDGE('',*,*,#327,.F.);
#410=ORIENTED_EDGE('',*,*,#329,.F.);
#411=ORIENTED_EDGE('',*,*,#330,.T.);
#412=ORIENTED_EDGE('',*,*,#331,.F.);
#413=ORIENTED_EDGE('',*,*,#330,.F.);
#414=ORIENTED_EDGE('',*,*,#332,.F.);
#415=ORIENTED_EDGE('',*,*,#333,.T.);
#416=ORIENTED_EDGE('',*,*,#334,.F.);
#417=ORIENTED_EDGE('',*,*,#333,.F.);
#418=ORIENTED_EDGE('',*,*,#335,.F.);
#419=ORIENTED_EDGE('',*,*,#336,.T.);
#420=ORIENTED_EDGE('',*,*,#337,.F.);
#421=ORIENTED_EDGE('',*,*,#336,.F.);
#422=ORIENTED_EDGE('',*,*,#338,.F.);
#423=ORIENTED_EDGE('',*,*,#339,.T.);
#424=ORIENTED_EDGE('',*,*,#340,.F.);
#425=ORIENTED_EDGE('',*,*,#339,.F.);
#426=ORIENTED_EDGE('',*,*,#341,.F.);
#427=ORIENTED_EDGE('',*,*,#342,.T.);
#428=ORIENTED_EDGE('',*,*,#343,.F.);
#429=ORIENTED_EDGE('',*,*,#342,.F.);
#430=ORIENTED_EDGE('',*,*,#344,.T.);
#431=ORIENTED_EDGE('',*,*,#345,.T.);
#432=ORIENTED_EDGE('',*,*,#346,.T.);
#433=ORIENTED_EDGE('',*,*,#347,.T.);
#434=ORIENTED_EDGE('',*,*,#348,.F.);
#435=ORIENTED_EDGE('',*,*,#349,.T.);
#436=ORIENTED_EDGE('',*,*,#350,.T.);
#437=ORIENTED_EDGE('',*,*,#351,.F.);
#438=ORIENTED_EDGE('',*,*,#343,.T.);
#439=ORIENTED_EDGE('',*,*,#340,.T.);
#440=ORIENTED_EDGE('',*,*,#337,.T.);
#441=ORIENTED_EDGE('',*,*,#334,.T.);
#442=ORIENTED_EDGE('',*,*,#331,.T.);
#443=ORIENTED_EDGE('',*,*,#328,.T.);
#444=ORIENTED_EDGE('',*,*,#325,.T.);
#445=ORIENTED_EDGE('',*,*,#345,.F.);
#446=ORIENTED_EDGE('',*,*,#352,.T.);
#447=ORIENTED_EDGE('',*,*,#353,.F.);
#448=ORIENTED_EDGE('',*,*,#354,.F.);
#449=ORIENTED_EDGE('',*,*,#346,.F.);
#450=ORIENTED_EDGE('',*,*,#354,.T.);
#451=ORIENTED_EDGE('',*,*,#355,.F.);
#452=ORIENTED_EDGE('',*,*,#356,.F.);
#453=ORIENTED_EDGE('',*,*,#347,.F.);
#454=ORIENTED_EDGE('',*,*,#356,.T.);
#455=ORIENTED_EDGE('',*,*,#357,.F.);
#456=ORIENTED_EDGE('',*,*,#358,.F.);
#457=ORIENTED_EDGE('',*,*,#344,.F.);
#458=ORIENTED_EDGE('',*,*,#358,.T.);
#459=ORIENTED_EDGE('',*,*,#359,.F.);
#460=ORIENTED_EDGE('',*,*,#352,.F.);
#461=ORIENTED_EDGE('',*,*,#359,.T.);
#462=ORIENTED_EDGE('',*,*,#357,.T.);
#463=ORIENTED_EDGE('',*,*,#355,.T.);
#464=ORIENTED_EDGE('',*,*,#353,.T.);
#465=ORIENTED_EDGE('',*,*,#341,.T.);
#466=ORIENTED_EDGE('',*,*,#338,.T.);
#467=ORIENTED_EDGE('',*,*,#335,.T.);
#468=ORIENTED_EDGE('',*,*,#332,.T.);
#469=ORIENTED_EDGE('',*,*,#329,.T.);
#470=ORIENTED_EDGE('',*,*,#326,.T.);
#471=ORIENTED_EDGE('',*,*,#323,.T.);
#472=ORIENTED_EDGE('',*,*,#360,.T.);
#473=ORIENTED_EDGE('',*,*,#361,.T.);
#474=ORIENTED_EDGE('',*,*,#362,.T.);
#475=ORIENTED_EDGE('',*,*,#363,.T.);
#476=ORIENTED_EDGE('',*,*,#364,.T.);
#477=ORIENTED_EDGE('',*,*,#361,.F.);
#478=ORIENTED_EDGE('',*,*,#365,.F.);
#479=ORIENTED_EDGE('',*,*,#366,.F.);
#480=ORIENTED_EDGE('',*,*,#367,.F.);
#481=ORIENTED_EDGE('',*,*,#368,.T.);
#482=ORIENTED_EDGE('',*,*,#363,.F.);
#483=ORIENTED_EDGE('',*,*,#368,.F.);
#484=ORIENTED_EDGE('',*,*,#369,.F.);
#485=ORIENTED_EDGE('',*,*,#370,.T.);
#486=ORIENTED_EDGE('',*,*,#371,.T.);
#487=ORIENTED_EDGE('',*,*,#348,.T.);
#488=ORIENTED_EDGE('',*,*,#372,.F.);
#489=ORIENTED_EDGE('',*,*,#373,.F.);
#490=ORIENTED_EDGE('',*,*,#374,.T.);
#491=ORIENTED_EDGE('',*,*,#375,.T.);
#492=ORIENTED_EDGE('',*,*,#376,.F.);
#493=ORIENTED_EDGE('',*,*,#360,.F.);
#494=ORIENTED_EDGE('',*,*,#375,.F.);
#495=ORIENTED_EDGE('',*,*,#377,.F.);
#496=ORIENTED_EDGE('',*,*,#378,.F.);
#497=ORIENTED_EDGE('',*,*,#370,.F.);
#498=ORIENTED_EDGE('',*,*,#379,.F.);
#499=ORIENTED_EDGE('',*,*,#380,.F.);
#500=ORIENTED_EDGE('',*,*,#379,.T.);
#501=ORIENTED_EDGE('',*,*,#369,.T.);
#502=ORIENTED_EDGE('',*,*,#367,.T.);
#503=ORIENTED_EDGE('',*,*,#381,.F.);
#504=ORIENTED_EDGE('',*,*,#382,.F.);
#505=ORIENTED_EDGE('',*,*,#383,.T.);
#506=ORIENTED_EDGE('',*,*,#365,.T.);
#507=ORIENTED_EDGE('',*,*,#376,.T.);
#508=ORIENTED_EDGE('',*,*,#380,.T.);
#509=ORIENTED_EDGE('',*,*,#381,.T.);
#510=ORIENTED_EDGE('',*,*,#366,.T.);
#511=ORIENTED_EDGE('',*,*,#383,.F.);
#512=ORIENTED_EDGE('',*,*,#384,.T.);
#513=ORIENTED_EDGE('',*,*,#385,.T.);
#514=ORIENTED_EDGE('',*,*,#386,.T.);
#515=ORIENTED_EDGE('',*,*,#387,.T.);
#516=ORIENTED_EDGE('',*,*,#378,.T.);
#517=ORIENTED_EDGE('',*,*,#388,.T.);
#518=ORIENTED_EDGE('',*,*,#349,.F.);
#519=ORIENTED_EDGE('',*,*,#371,.F.);
#520=ORIENTED_EDGE('',*,*,#389,.F.);
#521=ORIENTED_EDGE('',*,*,#372,.T.);
#522=ORIENTED_EDGE('',*,*,#351,.T.);
#523=ORIENTED_EDGE('',*,*,#390,.T.);
#524=ORIENTED_EDGE('',*,*,#364,.F.);
#525=ORIENTED_EDGE('',*,*,#373,.T.);
#526=ORIENTED_EDGE('',*,*,#389,.T.);
#527=ORIENTED_EDGE('',*,*,#391,.T.);
#528=ORIENTED_EDGE('',*,*,#362,.F.);
#529=ORIENTED_EDGE('',*,*,#391,.F.);
#530=ORIENTED_EDGE('',*,*,#390,.F.);
#531=ORIENTED_EDGE('',*,*,#350,.F.);
#532=ORIENTED_EDGE('',*,*,#388,.F.);
#533=ORIENTED_EDGE('',*,*,#377,.T.);
#534=ORIENTED_EDGE('',*,*,#374,.F.);
#535=ORIENTED_EDGE('',*,*,#386,.F.);
#536=ORIENTED_EDGE('',*,*,#387,.F.);
#537=ORIENTED_EDGE('',*,*,#392,.T.);
#538=ORIENTED_EDGE('',*,*,#384,.F.);
#539=ORIENTED_EDGE('',*,*,#385,.F.);
#540=ORIENTED_EDGE('',*,*,#392,.F.);
#541=ORIENTED_EDGE('',*,*,#382,.T.);
#542=ORIENTED_EDGE('',*,*,#393,.T.);
#543=ORIENTED_EDGE('',*,*,#394,.T.);
#544=ORIENTED_EDGE('',*,*,#395,.F.);
#545=ORIENTED_EDGE('',*,*,#396,.F.);
#546=ORIENTED_EDGE('',*,*,#397,.T.);
#547=ORIENTED_EDGE('',*,*,#396,.T.);
#548=ORIENTED_EDGE('',*,*,#398,.F.);
#549=ORIENTED_EDGE('',*,*,#399,.F.);
#550=ORIENTED_EDGE('',*,*,#400,.T.);
#551=ORIENTED_EDGE('',*,*,#399,.T.);
#552=ORIENTED_EDGE('',*,*,#401,.F.);
#553=ORIENTED_EDGE('',*,*,#394,.F.);
#554=ORIENTED_EDGE('',*,*,#400,.F.);
#555=ORIENTED_EDGE('',*,*,#393,.F.);
#556=ORIENTED_EDGE('',*,*,#397,.F.);
#557=ORIENTED_EDGE('',*,*,#401,.T.);
#558=ORIENTED_EDGE('',*,*,#398,.T.);
#559=ORIENTED_EDGE('',*,*,#395,.T.);
#560=CYLINDRICAL_SURFACE('',#617,2.);
#561=CYLINDRICAL_SURFACE('',#620,2.);
#562=CYLINDRICAL_SURFACE('',#623,2.);
#563=CYLINDRICAL_SURFACE('',#626,2.);
#564=CYLINDRICAL_SURFACE('',#629,2.);
#565=CYLINDRICAL_SURFACE('',#632,2.);
#566=CYLINDRICAL_SURFACE('',#635,2.);
#567=CYLINDRICAL_SURFACE('',#655,24.);
#568=CYLINDRICAL_SURFACE('',#660,25.);
#569=CYLINDRICAL_SURFACE('',#662,2.85);
#570=ADVANCED_FACE('',(#61),#560,.F.);
#571=ADVANCED_FACE('',(#62),#561,.F.);
#572=ADVANCED_FACE('',(#63),#562,.F.);
#573=ADVANCED_FACE('',(#64),#563,.F.);
#574=ADVANCED_FACE('',(#65),#564,.F.);
#575=ADVANCED_FACE('',(#66),#565,.F.);
#576=ADVANCED_FACE('',(#67),#566,.F.);
#577=ADVANCED_FACE('',(#68,#23,#24,#25,#26,#27,#28,#29,#30),#40,.F.);
#578=ADVANCED_FACE('',(#69),#41,.T.);
#579=ADVANCED_FACE('',(#70),#42,.T.);
#580=ADVANCED_FACE('',(#71),#43,.T.);
#581=ADVANCED_FACE('',(#72),#44,.T.);
#582=ADVANCED_FACE('',(#73,#31,#32,#33,#34,#35,#36,#37),#45,.T.);
#583=ADVANCED_FACE('',(#74),#46,.T.);
#584=ADVANCED_FACE('',(#75),#22,.T.);
#585=ADVANCED_FACE('',(#76),#47,.T.);
#586=ADVANCED_FACE('',(#77),#48,.T.);
#587=ADVANCED_FACE('',(#78),#49,.T.);
#588=ADVANCED_FACE('',(#79),#50,.T.);
#589=ADVANCED_FACE('',(#80),#51,.T.);
#590=ADVANCED_FACE('',(#81,#38,#39),#567,.T.);
#591=ADVANCED_FACE('',(#82),#52,.F.);
#592=ADVANCED_FACE('',(#83),#53,.T.);
#593=ADVANCED_FACE('',(#84),#568,.T.);
#594=ADVANCED_FACE('',(#85),#54,.T.);
#595=ADVANCED_FACE('',(#86),#569,.F.);
#596=ADVANCED_FACE('',(#87),#55,.T.);
#597=ADVANCED_FACE('',(#88),#56,.T.);
#598=ADVANCED_FACE('',(#89),#57,.T.);
#599=ADVANCED_FACE('',(#90),#58,.T.);
#600=ADVANCED_FACE('',(#91),#59,.T.);
#601=ADVANCED_FACE('',(#92),#60,.T.);
#602=CLOSED_SHELL('',(#570,#571,#572,#573,#574,#575,#576,#577,#578,#579,
#580,#581,#582,#583,#584,#585,#586,#587,#588,#589,#590,#591,#592,#593,#594,
#595,#596));
#603=CLOSED_SHELL('',(#597,#598,#599,#600,#601));
#604=DERIVED_UNIT_ELEMENT(#606,1.);
#605=DERIVED_UNIT_ELEMENT(#1067,-3.);
#606=(
MASS_UNIT()
NAMED_UNIT(*)
SI_UNIT(.KILO.,.GRAM.)
);
#607=DERIVED_UNIT((#604,#605));
#608=MEASURE_REPRESENTATION_ITEM('density measure',
POSITIVE_RATIO_MEASURE(7850.),#607);
#609=PROPERTY_DEFINITION_REPRESENTATION(#614,#611);
#610=PROPERTY_DEFINITION_REPRESENTATION(#615,#612);
#611=REPRESENTATION('material name',(#613),#1064);
#612=REPRESENTATION('density',(#608),#1064);
#613=DESCRIPTIVE_REPRESENTATION_ITEM('Steel','Steel');
#614=PROPERTY_DEFINITION('material property','material name',#1074);
#615=PROPERTY_DEFINITION('material property','density of part',#1074);
#616=AXIS2_PLACEMENT_3D('',#830,#669,#670);
#617=AXIS2_PLACEMENT_3D('',#831,#671,#672);
#618=AXIS2_PLACEMENT_3D('',#833,#673,#674);
#619=AXIS2_PLACEMENT_3D('',#836,#676,#677);
#620=AXIS2_PLACEMENT_3D('',#837,#678,#679);
#621=AXIS2_PLACEMENT_3D('',#839,#680,#681);
#622=AXIS2_PLACEMENT_3D('',#842,#683,#684);
#623=AXIS2_PLACEMENT_3D('',#843,#685,#686);
#624=AXIS2_PLACEMENT_3D('',#845,#687,#688);
#625=AXIS2_PLACEMENT_3D('',#848,#690,#691);
#626=AXIS2_PLACEMENT_3D('',#849,#692,#693);
#627=AXIS2_PLACEMENT_3D('',#851,#694,#695);
#628=AXIS2_PLACEMENT_3D('',#854,#697,#698);
#629=AXIS2_PLACEMENT_3D('',#855,#699,#700);
#630=AXIS2_PLACEMENT_3D('',#857,#701,#702);
#631=AXIS2_PLACEMENT_3D('',#860,#704,#705);
#632=AXIS2_PLACEMENT_3D('',#861,#706,#707);
#633=AXIS2_PLACEMENT_3D('',#863,#708,#709);
#634=AXIS2_PLACEMENT_3D('',#866,#711,#712);
#635=AXIS2_PLACEMENT_3D('',#867,#713,#714);
#636=AXIS2_PLACEMENT_3D('',#869,#715,#716);
#637=AXIS2_PLACEMENT_3D('',#872,#718,#719);
#638=AXIS2_PLACEMENT_3D('',#873,#720,#721);
#639=AXIS2_PLACEMENT_3D('',#890,#730,#731);
#640=AXIS2_PLACEMENT_3D('',#896,#735,#736);
#641=AXIS2_PLACEMENT_3D('',#900,#739,#740);
#642=AXIS2_PLACEMENT_3D('',#904,#743,#744);
#643=AXIS2_PLACEMENT_3D('',#906,#746,#747);
#644=AXIS2_PLACEMENT_3D('',#907,#748,#749);
#645=AXIS2_PLACEMENT_3D('',#914,#753,#754);
#646=AXIS2_PLACEMENT_3D('',#918,#756,#757);
#647=AXIS2_PLACEMENT_3D('',#920,#758,#759);
#648=AXIS2_PLACEMENT_3D('',#921,#760,#761);
#649=AXIS2_PLACEMENT_3D('',#922,#762,#763);
#650=AXIS2_PLACEMENT_3D('',#926,#766,#767);
#651=AXIS2_PLACEMENT_3D('',#935,#773,#774);
#652=AXIS2_PLACEMENT_3D('',#941,#778,#779);
#653=AXIS2_PLACEMENT_3D('',#947,#783,#784);
#654=AXIS2_PLACEMENT_3D('',#948,#785,#786);
#655=AXIS2_PLACEMENT_3D('',#950,#788,#789);
#656=AXIS2_PLACEMENT_3D('',#952,#790,#791);
#657=AXIS2_PLACEMENT_3D('',#1030,#793,#794);
#658=AXIS2_PLACEMENT_3D('',#1032,#796,#797);
#659=AXIS2_PLACEMENT_3D('',#1034,#798,#799);
#660=AXIS2_PLACEMENT_3D('',#1036,#801,#802);
#661=AXIS2_PLACEMENT_3D('',#1038,#804,#805);
#662=AXIS2_PLACEMENT_3D('',#1039,#806,#807);
#663=AXIS2_PLACEMENT_3D('',#1041,#809,#810);
#664=AXIS2_PLACEMENT_3D('',#1042,#811,#812);
#665=AXIS2_PLACEMENT_3D('',#1051,#817,#818);
#666=AXIS2_PLACEMENT_3D('',#1057,#822,#823);
#667=AXIS2_PLACEMENT_3D('',#1060,#826,#827);
#668=AXIS2_PLACEMENT_3D('',#1061,#828,#829);
#669=DIRECTION('axis',(0.,0.,1.));
#670=DIRECTION('refdir',(1.,0.,0.));
#671=DIRECTION('center_axis',(-1.,0.,0.));
#672=DIRECTION('ref_axis',(0.,1.,0.));
#673=DIRECTION('center_axis',(-1.,0.,0.));
#674=DIRECTION('ref_axis',(0.,1.,0.));
#675=DIRECTION('',(-1.,0.,0.));
#676=DIRECTION('center_axis',(1.,0.,0.));
#677=DIRECTION('ref_axis',(0.,1.,0.));
#678=DIRECTION('center_axis',(-1.,0.,0.));
#679=DIRECTION('ref_axis',(0.,1.,0.));
#680=DIRECTION('center_axis',(-1.,0.,0.));
#681=DIRECTION('ref_axis',(0.,1.,0.));
#682=DIRECTION('',(-1.,0.,0.));
#683=DIRECTION('center_axis',(1.,0.,0.));
#684=DIRECTION('ref_axis',(0.,1.,0.));
#685=DIRECTION('center_axis',(-1.,0.,0.));
#686=DIRECTION('ref_axis',(0.,1.,0.));
#687=DIRECTION('center_axis',(-1.,0.,0.));
#688=DIRECTION('ref_axis',(0.,1.,0.));
#689=DIRECTION('',(-1.,0.,0.));
#690=DIRECTION('center_axis',(1.,0.,0.));
#691=DIRECTION('ref_axis',(0.,1.,0.));
#692=DIRECTION('center_axis',(-1.,0.,0.));
#693=DIRECTION('ref_axis',(0.,1.,0.));
#694=DIRECTION('center_axis',(-1.,0.,0.));
#695=DIRECTION('ref_axis',(0.,1.,0.));
#696=DIRECTION('',(-1.,0.,0.));
#697=DIRECTION('center_axis',(1.,0.,0.));
#698=DIRECTION('ref_axis',(0.,1.,0.));
#699=DIRECTION('center_axis',(-1.,0.,0.));
#700=DIRECTION('ref_axis',(0.,1.,0.));
#701=DIRECTION('center_axis',(-1.,0.,0.));
#702=DIRECTION('ref_axis',(0.,1.,0.));
#703=DIRECTION('',(-1.,0.,0.));
#704=DIRECTION('center_axis',(1.,0.,0.));
#705=DIRECTION('ref_axis',(0.,1.,0.));
#706=DIRECTION('center_axis',(-1.,0.,0.));
#707=DIRECTION('ref_axis',(0.,1.,0.));
#708=DIRECTION('center_axis',(-1.,0.,0.));
#709=DIRECTION('ref_axis',(0.,1.,0.));
#710=DIRECTION('',(-1.,0.,0.));
#711=DIRECTION('center_axis',(1.,0.,0.));
#712=DIRECTION('ref_axis',(0.,1.,0.));
#713=DIRECTION('center_axis',(-1.,0.,0.));
#714=DIRECTION('ref_axis',(0.,1.,0.));
#715=DIRECTION('center_axis',(-1.,0.,0.));
#716=DIRECTION('ref_axis',(0.,1.,0.));
#717=DIRECTION('',(-1.,0.,0.));
#718=DIRECTION('center_axis',(1.,0.,0.));
#719=DIRECTION('ref_axis',(0.,1.,0.));
#720=DIRECTION('center_axis',(1.,0.,0.));
#721=DIRECTION('ref_axis',(0.,1.,0.));
#722=DIRECTION('',(0.,1.,0.));
#723=DIRECTION('',(0.,0.,-1.));
#724=DIRECTION('',(0.,-1.,0.));
#725=DIRECTION('',(0.,0.,1.));
#726=DIRECTION('',(0.,0.,-1.));
#727=DIRECTION('',(0.,-1.,0.));
#728=DIRECTION('',(0.,0.,-1.));
#729=DIRECTION('',(0.,-1.,0.));
#730=DIRECTION('center_axis',(0.,1.,0.));
#731=DIRECTION('ref_axis',(0.,0.,1.));
#732=DIRECTION('',(1.,0.,0.));
#733=DIRECTION('',(0.,0.,1.));
#734=DIRECTION('',(1.,0.,0.));
#735=DIRECTION('center_axis',(0.,0.,-1.));
#736=DIRECTION('ref_axis',(0.,1.,0.));
#737=DIRECTION('',(0.,1.,0.));
#738=DIRECTION('',(1.,0.,0.));
#739=DIRECTION('center_axis',(0.,-1.,0.));
#740=DIRECTION('ref_axis',(0.,0.,-1.));
#741=DIRECTION('',(0.,0.,-1.));
#742=DIRECTION('',(1.,0.,0.));
#743=DIRECTION('center_axis',(0.,0.,1.));
#744=DIRECTION('ref_axis',(0.,-1.,0.));
#745=DIRECTION('',(0.,-1.,0.));
#746=DIRECTION('center_axis',(1.,0.,0.));
#747=DIRECTION('ref_axis',(0.,0.,-1.));
#748=DIRECTION('center_axis',(0.,-0.707106781186547,0.707106781186548));
#749=DIRECTION('ref_axis',(1.,0.,0.));
#750=DIRECTION('',(0.577350269189624,-0.577350269189627,-0.577350269189626));
#751=DIRECTION('',(0.,-0.707106781186545,-0.70710678118655));
#752=DIRECTION('',(1.,0.,0.));
#753=DIRECTION('center_axis',(0.,0.,-1.));
#754=DIRECTION('ref_axis',(-0.707106781186547,0.707106781186547,0.));
#755=DIRECTION('',(0.,0.707106781186545,-0.70710678118655));
#756=DIRECTION('center_axis',(0.,0.,1.));
#757=DIRECTION('ref_axis',(-0.707106781186547,0.707106781186547,0.));
#758=DIRECTION('center_axis',(0.,0.,1.));
#759=DIRECTION('ref_axis',(1.,0.,0.));
#760=DIRECTION('center_axis',(0.,0.,1.));
#761=DIRECTION('ref_axis',(1.,0.,0.));
#762=DIRECTION('center_axis',(0.,0.707106781186547,0.707106781186548));
#763=DIRECTION('ref_axis',(1.,0.,0.));
#764=DIRECTION('',(-0.577350269189626,-0.577350269189626,0.577350269189625));
#765=DIRECTION('',(-1.,0.,0.));
#766=DIRECTION('center_axis',(0.,1.,0.));
#767=DIRECTION('ref_axis',(1.,0.,0.));
#768=DIRECTION('',(0.,0.,-1.));
#769=DIRECTION('',(0.962964019714182,0.,-0.269629925519971));
#770=DIRECTION('',(1.,0.,0.));
#771=DIRECTION('',(1.,0.,0.));
#772=DIRECTION('',(0.,0.,-1.));
#773=DIRECTION('center_axis',(-0.707106781186549,-0.707106781186546,0.));
#774=DIRECTION('ref_axis',(0.,0.,1.));
#775=DIRECTION('',(0.,0.,1.));
#776=DIRECTION('',(-0.693642082022327,0.69364208202233,0.194219782966252));
#777=DIRECTION('',(0.,0.,1.));
#778=DIRECTION('center_axis',(0.269629925519971,0.,0.962964019714182));
#779=DIRECTION('ref_axis',(0.962964019714182,0.,-0.269629925519971));
#780=DIRECTION('',(-0.962964019714182,0.,0.269629925519971));
#781=DIRECTION('',(0.,-1.,0.));
#782=DIRECTION('',(0.693642082022329,0.693642082022329,-0.194219782966252));
#783=DIRECTION('center_axis',(0.269629925519971,0.,0.962964019714182));
#784=DIRECTION('ref_axis',(0.962964019714182,0.,-0.269629925519971));
#785=DIRECTION('center_axis',(-0.707106781186548,0.707106781186548,0.));
#786=DIRECTION('ref_axis',(0.,0.,1.));
#787=DIRECTION('',(0.,0.,-1.));
#788=DIRECTION('center_axis',(0.,0.,1.));
#789=DIRECTION('ref_axis',(1.,0.,0.));
#790=DIRECTION('center_axis',(0.,0.,1.));
#791=DIRECTION('ref_axis',(1.,0.,0.));
#792=DIRECTION('',(0.,0.,-1.));
#793=DIRECTION('center_axis',(0.,0.,-1.));
#794=DIRECTION('ref_axis',(1.,0.,0.));
#795=DIRECTION('',(1.,0.,0.));
#796=DIRECTION('center_axis',(0.,0.,-1.));
#797=DIRECTION('ref_axis',(-1.,0.,0.));
#798=DIRECTION('center_axis',(0.,0.,1.));
#799=DIRECTION('ref_axis',(-0.707106781186547,-0.707106781186547,0.));
#800=DIRECTION('',(-1.,0.,0.));
#801=DIRECTION('center_axis',(0.,0.,-1.));
#802=DIRECTION('ref_axis',(-0.707106781186547,0.707106781186547,0.));
#803=DIRECTION('',(0.,0.,1.));
#804=DIRECTION('center_axis',(0.,-1.,0.));
#805=DIRECTION('ref_axis',(-1.,0.,0.));
#806=DIRECTION('center_axis',(0.,-1.,0.));
#807=DIRECTION('ref_axis',(0.,0.,1.));
#808=DIRECTION('',(0.,-1.,0.));
#809=DIRECTION('center_axis',(0.,0.,1.));
#810=DIRECTION('ref_axis',(1.,0.,0.));
#811=DIRECTION('center_axis',(-0.14142135623731,0.,-0.989949493661167));
#812=DIRECTION('ref_axis',(0.989949493661167,0.,-0.14142135623731));
#813=DIRECTION('',(0.989949493661167,0.,-0.14142135623731));
#814=DIRECTION('',(0.,-1.,0.));
#815=DIRECTION('',(0.989949493661167,0.,-0.14142135623731));
#816=DIRECTION('',(0.,-1.,0.));
#817=DIRECTION('center_axis',(0.,0.,1.));
#818=DIRECTION('ref_axis',(-1.,0.,0.));
#819=DIRECTION('',(-1.,0.,0.));
#820=DIRECTION('',(-1.,0.,0.));
#821=DIRECTION('',(0.,-1.,0.));
#822=DIRECTION('center_axis',(1.,0.,0.));
#823=DIRECTION('ref_axis',(0.,0.,1.));
#824=DIRECTION('',(0.,0.,1.));
#825=DIRECTION('',(0.,0.,1.));
#826=DIRECTION('center_axis',(0.,1.,0.));
#827=DIRECTION('ref_axis',(-1.,0.,0.));
#828=DIRECTION('center_axis',(0.,-1.,0.));
#829=DIRECTION('ref_axis',(0.,0.,-1.));
#830=CARTESIAN_POINT('',(0.,0.,0.));
#831=CARTESIAN_POINT('Origin',(279.5,45.,-45.));
#832=CARTESIAN_POINT('',(285.,43.,-45.));
#833=CARTESIAN_POINT('Origin',(285.,45.,-45.));
#834=CARTESIAN_POINT('',(275.,43.,-45.));
#835=CARTESIAN_POINT('',(279.5,43.,-45.));
#836=CARTESIAN_POINT('Origin',(275.,45.,-45.));
#837=CARTESIAN_POINT('Origin',(279.5,-45.,-10.));
#838=CARTESIAN_POINT('',(285.,-47.,-10.));
#839=CARTESIAN_POINT('Origin',(285.,-45.,-10.));
#840=CARTESIAN_POINT('',(275.,-47.,-10.));
#841=CARTESIAN_POINT('',(279.5,-47.,-10.));
#842=CARTESIAN_POINT('Origin',(275.,-45.,-10.));
#843=CARTESIAN_POINT('Origin',(279.5,0.,25.));
#844=CARTESIAN_POINT('',(285.,-2.,25.));
#845=CARTESIAN_POINT('Origin',(285.,0.,25.));
#846=CARTESIAN_POINT('',(275.,-2.,25.));
#847=CARTESIAN_POINT('',(279.5,-2.,25.));
#848=CARTESIAN_POINT('Origin',(275.,0.,25.));
#849=CARTESIAN_POINT('Origin',(279.5,-45.,25.));
#850=CARTESIAN_POINT('',(285.,-47.,25.));
#851=CARTESIAN_POINT('Origin',(285.,-45.,25.));
#852=CARTESIAN_POINT('',(275.,-47.,25.));
#853=CARTESIAN_POINT('',(279.5,-47.,25.));
#854=CARTESIAN_POINT('Origin',(275.,-45.,25.));
#855=CARTESIAN_POINT('Origin',(279.5,45.,25.));
#856=CARTESIAN_POINT('',(285.,43.,25.));
#857=CARTESIAN_POINT('Origin',(285.,45.,25.));
#858=CARTESIAN_POINT('',(275.,43.,25.));
#859=CARTESIAN_POINT('',(279.5,43.,25.));
#860=CARTESIAN_POINT('Origin',(275.,45.,25.));
#861=CARTESIAN_POINT('Origin',(279.5,45.,-10.));
#862=CARTESIAN_POINT('',(285.,43.,-10.));
#863=CARTESIAN_POINT('Origin',(285.,45.,-10.));
#864=CARTESIAN_POINT('',(275.,43.,-10.));
#865=CARTESIAN_POINT('',(279.5,43.,-10.));
#866=CARTESIAN_POINT('Origin',(275.,45.,-10.));
#867=CARTESIAN_POINT('Origin',(279.5,-45.,-45.));
#868=CARTESIAN_POINT('',(285.,-47.,-45.));
#869=CARTESIAN_POINT('Origin',(285.,-45.,-45.));
#870=CARTESIAN_POINT('',(275.,-47.,-45.));
#871=CARTESIAN_POINT('',(279.5,-47.,-45.));
#872=CARTESIAN_POINT('Origin',(275.,-45.,-45.));
#873=CARTESIAN_POINT('Origin',(275.,0.,-10.));
#874=CARTESIAN_POINT('',(275.,-50.,30.));
#875=CARTESIAN_POINT('',(275.,50.,30.));
#876=CARTESIAN_POINT('',(275.,-50.,30.));
#877=CARTESIAN_POINT('',(275.,50.,-50.));
#878=CARTESIAN_POINT('',(275.,50.,30.));
#879=CARTESIAN_POINT('',(275.,-50.,-50.));
#880=CARTESIAN_POINT('',(275.,50.,-50.));
#881=CARTESIAN_POINT('',(275.,-50.,-50.));
#882=CARTESIAN_POINT('',(275.,25.,0.));
#883=CARTESIAN_POINT('',(275.,25.,-10.));
#884=CARTESIAN_POINT('',(275.,25.,0.));
#885=CARTESIAN_POINT('',(275.,-25.,0.));
#886=CARTESIAN_POINT('',(275.,25.,0.));
#887=CARTESIAN_POINT('',(275.,-25.,-10.));
#888=CARTESIAN_POINT('',(275.,-25.,0.));
#889=CARTESIAN_POINT('',(275.,25.,-10.));
#890=CARTESIAN_POINT('Origin',(275.,50.,-50.));
#891=CARTESIAN_POINT('',(285.,50.,30.));
#892=CARTESIAN_POINT('',(275.,50.,30.));
#893=CARTESIAN_POINT('',(285.,50.,-50.));
#894=CARTESIAN_POINT('',(285.,50.,30.));
#895=CARTESIAN_POINT('',(275.,50.,-50.));
#896=CARTESIAN_POINT('Origin',(275.,-50.,-50.));
#897=CARTESIAN_POINT('',(285.,-50.,-50.));
#898=CARTESIAN_POINT('',(285.,50.,-50.));
#899=CARTESIAN_POINT('',(275.,-50.,-50.));
#900=CARTESIAN_POINT('Origin',(275.,-50.,30.));
#901=CARTESIAN_POINT('',(285.,-50.,30.));
#902=CARTESIAN_POINT('',(285.,-50.,-50.));
#903=CARTESIAN_POINT('',(275.,-50.,30.));
#904=CARTESIAN_POINT('Origin',(275.,50.,30.));
#905=CARTESIAN_POINT('',(285.,-50.,30.));
#906=CARTESIAN_POINT('Origin',(285.,0.,-10.));
#907=CARTESIAN_POINT('Origin',(200.,-24.5,-0.5));
#908=CARTESIAN_POINT('',(1.00000000000001,-25.,-1.));
#909=CARTESIAN_POINT('',(0.,-24.,0.));
#910=CARTESIAN_POINT('',(30.7499999999998,-54.75,-30.7499999999999));
#911=CARTESIAN_POINT('',(0.,-25.,-1.));
#912=CARTESIAN_POINT('',(0.,-24.,0.));
#913=CARTESIAN_POINT('',(200.,-25.,-1.));
#914=CARTESIAN_POINT('Origin',(0.,0.,-0.5));
#915=CARTESIAN_POINT('',(0.,24.,0.));
#916=CARTESIAN_POINT('',(0.,25.,-1.));
#917=CARTESIAN_POINT('',(0.,24.,0.));
#918=CARTESIAN_POINT('Origin',(0.,0.,-1.));
#919=CARTESIAN_POINT('',(-24.,-2.93915231795365E-15,0.));
#920=CARTESIAN_POINT('Origin',(0.,0.,0.));
#921=CARTESIAN_POINT('Origin',(0.,0.,0.));
#922=CARTESIAN_POINT('Origin',(50.,24.5,-0.5));
#923=CARTESIAN_POINT('',(0.999999999999996,25.,-1.));
#924=CARTESIAN_POINT('',(8.66666666666667,32.6666666666667,-8.66666666666666));
#925=CARTESIAN_POINT('',(50.,25.,-1.));
#926=CARTESIAN_POINT('Origin',(-25.,25.,0.));
#927=CARTESIAN_POINT('',(1.,25.,34.72));
#928=CARTESIAN_POINT('',(0.999999999999995,25.,0.));
#929=CARTESIAN_POINT('',(125.,25.,0.));
#930=CARTESIAN_POINT('',(0.,25.,35.));
#931=CARTESIAN_POINT('',(-25.,25.,0.));
#932=CARTESIAN_POINT('',(0.,25.,-10.));
#933=CARTESIAN_POINT('',(-25.,25.,-10.));
#934=CARTESIAN_POINT('',(0.,25.,0.));
#935=CARTESIAN_POINT('Origin',(0.499999999999998,-24.5,17.5));
#936=CARTESIAN_POINT('',(0.999999999999996,-25.,34.72));
#937=CARTESIAN_POINT('',(0.999999999999943,-25.,8.75));
#938=CARTESIAN_POINT('',(0.,-24.,35.));
#939=CARTESIAN_POINT('',(-4.35431100846806,-19.6456889915319,36.2192070823711));
#940=CARTESIAN_POINT('',(0.,-24.,0.));
#941=CARTESIAN_POINT('Origin',(0.,0.,35.));
#942=CARTESIAN_POINT('',(125.,-25.,0.));
#943=CARTESIAN_POINT('',(0.,-25.,35.));
#944=CARTESIAN_POINT('',(125.,0.,2.22044604925031E-15));
#945=CARTESIAN_POINT('',(0.,24.,35.));
#946=CARTESIAN_POINT('',(-3.17551963048499,20.824480369515,35.8891454965358));
#947=CARTESIAN_POINT('Origin',(0.,0.,35.));
#948=CARTESIAN_POINT('Origin',(0.5,24.5,0.));
#949=CARTESIAN_POINT('',(0.,24.,0.));
#950=CARTESIAN_POINT('Origin',(0.,0.,0.));
#951=CARTESIAN_POINT('',(-24.,-2.93915231795365E-15,85.));
#952=CARTESIAN_POINT('Origin',(0.,0.,85.));
#953=CARTESIAN_POINT('',(-24.,-2.93915231795365E-15,0.));
#954=CARTESIAN_POINT('',(2.85,-23.8301804441343,72.15));
#955=CARTESIAN_POINT('',(3.49024337756996E-16,-24.,69.3));
#956=CARTESIAN_POINT('Ctrl Pts',(2.85,-23.8301804441343,72.15));
#957=CARTESIAN_POINT('Ctrl Pts',(2.85,-23.8301804441343,71.7917833466555));
#958=CARTESIAN_POINT('Ctrl Pts',(2.77834103792221,-23.8390906500211,71.4099229183823));
#959=CARTESIAN_POINT('Ctrl Pts',(2.48738349847163,-23.8712032613229,70.7078431100143));
#960=CARTESIAN_POINT('Ctrl Pts',(2.26810328830395,-23.8939342521648,70.3875946355406));
#961=CARTESIAN_POINT('Ctrl Pts',(1.76240708248886,-23.9365475157511,69.8818984297255));
#962=CARTESIAN_POINT('Ctrl Pts',(1.44215785965064,-23.9592083726258,69.6626168744696));
#963=CARTESIAN_POINT('Ctrl Pts',(0.740075523450587,-23.9911603169023,69.3716583452481));
#964=CARTESIAN_POINT('Ctrl Pts',(0.358214219374567,-24.,69.3));
#965=CARTESIAN_POINT('Ctrl Pts',(5.20417042793042E-16,-24.,69.3));
#966=CARTESIAN_POINT('Ctrl Pts',(7.63278329429795E-16,-24.,69.3));
#967=CARTESIAN_POINT('Ctrl Pts',(-0.358214219374566,-24.,69.3));
#968=CARTESIAN_POINT('Ctrl Pts',(-0.740075523450581,-23.9911603169023,69.3716583452481));
#969=CARTESIAN_POINT('Ctrl Pts',(-1.44215785965064,-23.9592083726259,69.6626168744696));
#970=CARTESIAN_POINT('Ctrl Pts',(-1.76240708248886,-23.9365475157511,69.8818984297255));
#971=CARTESIAN_POINT('Ctrl Pts',(-2.26810328830395,-23.8939342521648,70.3875946355406));
#972=CARTESIAN_POINT('Ctrl Pts',(-2.48738349847163,-23.8712032613229,70.7078431100143));
#973=CARTESIAN_POINT('Ctrl Pts',(-2.77834103792221,-23.8390906500211,71.4099229183823));
#974=CARTESIAN_POINT('Ctrl Pts',(-2.85,-23.8301804441343,71.7917833466555));
#975=CARTESIAN_POINT('Ctrl Pts',(-2.85,-23.8301804441343,72.5082166533445));
#976=CARTESIAN_POINT('Ctrl Pts',(-2.77834103792221,-23.8390906500211,72.8900770816177));
#977=CARTESIAN_POINT('Ctrl Pts',(-2.48738349847163,-23.8712032613229,73.5921568899857));
#978=CARTESIAN_POINT('Ctrl Pts',(-2.26810328830396,-23.8939342521648,73.9124053644594));
#979=CARTESIAN_POINT('Ctrl Pts',(-1.76240708248886,-23.9365475157511,74.4181015702745));
#980=CARTESIAN_POINT('Ctrl Pts',(-1.44215785965064,-23.9592083726258,74.6373831255304));
#981=CARTESIAN_POINT('Ctrl Pts',(-0.740075523450587,-23.9911603169023,74.9283416547519));
#982=CARTESIAN_POINT('Ctrl Pts',(-0.358214219374566,-24.,75.));
#983=CARTESIAN_POINT('Ctrl Pts',(0.358214219374565,-24.,75.));
#984=CARTESIAN_POINT('Ctrl Pts',(0.740075523450583,-23.9911603169023,74.9283416547519));
#985=CARTESIAN_POINT('Ctrl Pts',(1.44215785965063,-23.9592083726258,74.6373831255304));
#986=CARTESIAN_POINT('Ctrl Pts',(1.76240708248886,-23.9365475157511,74.4181015702745));
#987=CARTESIAN_POINT('Ctrl Pts',(2.26810328830395,-23.8939342521648,73.9124053644594));
#988=CARTESIAN_POINT('Ctrl Pts',(2.48738349847163,-23.8712032613229,73.5921568899857));
#989=CARTESIAN_POINT('Ctrl Pts',(2.77834103792221,-23.8390906500211,72.8900770816177));
#990=CARTESIAN_POINT('Ctrl Pts',(2.85,-23.8301804441343,72.5082166533445));
#991=CARTESIAN_POINT('Ctrl Pts',(2.85,-23.8301804441343,72.15));
#992=CARTESIAN_POINT('',(-2.85,23.8301804441343,72.15));
#993=CARTESIAN_POINT('',(3.49024337756996E-16,24.,69.3));
#994=CARTESIAN_POINT('Ctrl Pts',(-2.85,23.8301804441343,72.15));
#995=CARTESIAN_POINT('Ctrl Pts',(-2.85,23.8301804441343,71.7917833466555));
#996=CARTESIAN_POINT('Ctrl Pts',(-2.77834103792221,23.8390906500211,71.4099229183823));
#997=CARTESIAN_POINT('Ctrl Pts',(-2.48738349847163,23.8712032613229,70.7078431100143));
#998=CARTESIAN_POINT('Ctrl Pts',(-2.26810328830395,23.8939342521648,70.3875946355406));
#999=CARTESIAN_POINT('Ctrl Pts',(-1.76240708248886,23.9365475157511,69.8818984297255));
#1000=CARTESIAN_POINT('Ctrl Pts',(-1.44215785965064,23.9592083726258,69.6626168744696));
#1001=CARTESIAN_POINT('Ctrl Pts',(-0.740075523450587,23.9911603169023,69.3716583452481));
#1002=CARTESIAN_POINT('Ctrl Pts',(-0.358214219374567,24.,69.3));
#1003=CARTESIAN_POINT('Ctrl Pts',(-5.20417042793042E-16,24.,69.3));
#1004=CARTESIAN_POINT('Ctrl Pts',(-6.93889390390723E-16,24.,69.3));
#1005=CARTESIAN_POINT('Ctrl Pts',(0.358214219374566,24.,69.3));
#1006=CARTESIAN_POINT('Ctrl Pts',(0.740075523450581,23.9911603169023,69.3716583452481));
#1007=CARTESIAN_POINT('Ctrl Pts',(1.44215785965064,23.9592083726259,69.6626168744696));
#1008=CARTESIAN_POINT('Ctrl Pts',(1.76240708248886,23.9365475157511,69.8818984297255));
#1009=CARTESIAN_POINT('Ctrl Pts',(2.26810328830395,23.8939342521648,70.3875946355406));
#1010=CARTESIAN_POINT('Ctrl Pts',(2.48738349847163,23.8712032613229,70.7078431100143));
#1011=CARTESIAN_POINT('Ctrl Pts',(2.77834103792221,23.8390906500211,71.4099229183823));
#1012=CARTESIAN_POINT('Ctrl Pts',(2.85,23.8301804441343,71.7917833466555));
#1013=CARTESIAN_POINT('Ctrl Pts',(2.85,23.8301804441343,72.5082166533445));
#1014=CARTESIAN_POINT('Ctrl Pts',(2.77834103792221,23.8390906500211,72.8900770816177));
#1015=CARTESIAN_POINT('Ctrl Pts',(2.48738349847163,23.8712032613229,73.5921568899857));
#1016=CARTESIAN_POINT('Ctrl Pts',(2.26810328830396,23.8939342521648,73.9124053644594));
#1017=CARTESIAN_POINT('Ctrl Pts',(1.76240708248886,23.9365475157511,74.4181015702745));
#1018=CARTESIAN_POINT('Ctrl Pts',(1.44215785965064,23.9592083726258,74.6373831255304));
#1019=CARTESIAN_POINT('Ctrl Pts',(0.740075523450587,23.9911603169023,74.9283416547519));
#1020=CARTESIAN_POINT('Ctrl Pts',(0.358214219374566,24.,75.));
#1021=CARTESIAN_POINT('Ctrl Pts',(-0.358214219374565,24.,75.));
#1022=CARTESIAN_POINT('Ctrl Pts',(-0.740075523450583,23.9911603169023,74.9283416547519));
#1023=CARTESIAN_POINT('Ctrl Pts',(-1.44215785965063,23.9592083726258,74.6373831255304));
#1024=CARTESIAN_POINT('Ctrl Pts',(-1.76240708248886,23.9365475157511,74.4181015702745));
#1025=CARTESIAN_POINT('Ctrl Pts',(-2.26810328830395,23.8939342521648,73.9124053644594));
#1026=CARTESIAN_POINT('Ctrl Pts',(-2.48738349847163,23.8712032613229,73.5921568899857));
#1027=CARTESIAN_POINT('Ctrl Pts',(-2.77834103792221,23.8390906500211,72.8900770816177));
#1028=CARTESIAN_POINT('Ctrl Pts',(-2.85,23.8301804441343,72.5082166533445));
#1029=CARTESIAN_POINT('Ctrl Pts',(-2.85,23.8301804441343,72.15));
#1030=CARTESIAN_POINT('Origin',(125.,0.,0.));
#1031=CARTESIAN_POINT('',(-25.,-25.,0.));
#1032=CARTESIAN_POINT('Origin',(125.,0.,-10.));
#1033=CARTESIAN_POINT('',(0.,-25.,-10.));
#1034=CARTESIAN_POINT('Origin',(0.,0.,-10.));
#1035=CARTESIAN_POINT('',(-25.,-25.,-10.));
#1036=CARTESIAN_POINT('Origin',(0.,0.,0.));
#1037=CARTESIAN_POINT('',(0.,-25.,0.));
#1038=CARTESIAN_POINT('Origin',(275.,-25.,0.));
#1039=CARTESIAN_POINT('Origin',(0.,-13.2,72.15));
#1040=CARTESIAN_POINT('',(3.49024337756996E-16,-13.2,69.3));
#1041=CARTESIAN_POINT('Origin',(0.,0.,85.));
#1042=CARTESIAN_POINT('Origin',(0.,25.,-10.));
#1043=CARTESIAN_POINT('',(0.,25.,-10.));
#1044=CARTESIAN_POINT('',(280.,25.,-50.));
#1045=CARTESIAN_POINT('',(0.,25.,-10.));
#1046=CARTESIAN_POINT('',(280.,-25.,-50.));
#1047=CARTESIAN_POINT('',(280.,25.,-50.));
#1048=CARTESIAN_POINT('',(0.,-25.,-10.));
#1049=CARTESIAN_POINT('',(0.,-25.,-10.));
#1050=CARTESIAN_POINT('',(0.,25.,-10.));
#1051=CARTESIAN_POINT('Origin',(280.,25.,-10.));
#1052=CARTESIAN_POINT('',(280.,25.,-10.));
#1053=CARTESIAN_POINT('',(280.,25.,-10.));
#1054=CARTESIAN_POINT('',(280.,-25.,-10.));
#1055=CARTESIAN_POINT('',(280.,-25.,-10.));
#1056=CARTESIAN_POINT('',(280.,25.,-10.));
#1057=CARTESIAN_POINT('Origin',(280.,25.,-50.));
#1058=CARTESIAN_POINT('',(280.,25.,-50.));
#1059=CARTESIAN_POINT('',(280.,-25.,-50.));
#1060=CARTESIAN_POINT('Origin',(140.,25.,-30.));
#1061=CARTESIAN_POINT('Origin',(140.,-25.,-30.));
#1062=UNCERTAINTY_MEASURE_WITH_UNIT(LENGTH_MEASURE(0.01),#1066,
'DISTANCE_ACCURACY_VALUE',
'Maximum model space distance between geometric entities at asserted c
onnectivities');
#1063=UNCERTAINTY_MEASURE_WITH_UNIT(LENGTH_MEASURE(0.01),#1066,
'DISTANCE_ACCURACY_VALUE',
'Maximum model space distance between geometric entities at asserted c
onnectivities');
#1064=(
GEOMETRIC_REPRESENTATION_CONTEXT(3)
GLOBAL_UNCERTAINTY_ASSIGNED_CONTEXT((#1062))
GLOBAL_UNIT_ASSIGNED_CONTEXT((#1066,#1068,#1069))
REPRESENTATION_CONTEXT('','3D')
);
#1065=(
GEOMETRIC_REPRESENTATION_CONTEXT(3)
GLOBAL_UNCERTAINTY_ASSIGNED_CONTEXT((#1063))
GLOBAL_UNIT_ASSIGNED_CONTEXT((#1066,#1068,#1069))
REPRESENTATION_CONTEXT('','3D')
);
#1066=(
LENGTH_UNIT()
NAMED_UNIT(*)
SI_UNIT(.MILLI.,.METRE.)
);
#1067=(
LENGTH_UNIT()
NAMED_UNIT(*)
SI_UNIT($,.METRE.)
);
#1068=(
NAMED_UNIT(*)
PLANE_ANGLE_UNIT()
SI_UNIT($,.RADIAN.)
);
#1069=(
NAMED_UNIT(*)
SI_UNIT($,.STERADIAN.)
SOLID_ANGLE_UNIT()
);
#1070=SHAPE_DEFINITION_REPRESENTATION(#1071,#1072);
#1071=PRODUCT_DEFINITION_SHAPE('',$,#1074);
#1072=SHAPE_REPRESENTATION('',(#616),#1064);
#1073=PRODUCT_DEFINITION_CONTEXT('part definition',#1078,'design');
#1074=PRODUCT_DEFINITION('(Unsaved)','(Unsaved)',#1075,#1073);
#1075=PRODUCT_DEFINITION_FORMATION('',$,#1080);
#1076=PRODUCT_RELATED_PRODUCT_CATEGORY('(Unsaved)','(Unsaved)',(#1080));
#1077=APPLICATION_PROTOCOL_DEFINITION('international standard',
'automotive_design',2009,#1078);
#1078=APPLICATION_CONTEXT(
'Core Data for Automotive Mechanical Design Process');
#1079=PRODUCT_CONTEXT('part definition',#1078,'mechanical');
#1080=PRODUCT('(Unsaved)','(Unsaved)',$,(#1079));
#1081=PRESENTATION_STYLE_ASSIGNMENT((#1082));
#1082=SURFACE_STYLE_USAGE(.BOTH.,#1083);
#1083=SURFACE_SIDE_STYLE('',(#1084));
#1084=SURFACE_STYLE_FILL_AREA(#1085);
#1085=FILL_AREA_STYLE('Steel - Satin',(#1086));
#1086=FILL_AREA_STYLE_COLOUR('Steel - Satin',#1087);
#1087=COLOUR_RGB('Steel - Satin',0.627450980392157,0.627450980392157,0.627450980392157);
ENDSEC;
END-ISO-10303-21;
